<svg xmlns="http://www.w3.org/2000/svg" version="1.1" xmlns:xlink="http://www.w3.org/1999/xlink" xmlns:svgjs="http://svgjs.dev/svgjs" width="2000" height="1500" viewBox="0 0 2000 1500"><rect width="2000" height="1500" fill="#8abe53"></rect><g transform="matrix(0.75,0,0,0.75,249.090909090909,282.7536437246963)"><svg viewBox="0 0 396 247" data-background-color="#8abe53" preserveAspectRatio="xMidYMid meet" height="1247" width="2000" xmlns="http://www.w3.org/2000/svg" xmlns:xlink="http://www.w3.org/1999/xlink"><g id="tight-bounds" transform="matrix(1,0,0,1,0.2400000000000091,-0.09999999999999432)"><svg viewBox="0 0 395.52 247.2" height="247.2" width="395.52"><g><svg></svg></g><g><svg viewBox="0 0 395.52 247.2" height="247.2" width="395.52"><g><g><path xmlns="http://www.w3.org/2000/svg" d="M237.159 52.109v-52.109h104.218v52.109h-15.886l0 35.983h-73.08v-35.983zM325.491 247.2h-89.285l-57.23-88.092h146.515zM143.109 195.091h15.252v52.109h-104.218v-52.109h15.886l0-35.983h73.08zM70.029 52.109h-15.886v-52.109h114.703l57.776 88.092-156.593 0z" fill="#ffffff" fill-rule="nonzero" stroke="none" stroke-width="1" stroke-linecap="butt" stroke-linejoin="miter" stroke-miterlimit="10" stroke-dasharray="" stroke-dashoffset="0" font-family="none" font-weight="none" font-size="none" text-anchor="none" style="mix-blend-mode: normal" data-fill-palette-color="tertiary"></path></g></g><g transform="matrix(1,0,0,1,0,96.11344024831867)"><svg viewBox="0 0 395.52 54.97311950336265" height="54.97311950336265" width="395.52"><g><svg viewBox="0 0 395.52 54.97311950336265" height="54.97311950336265" width="395.52"><g><svg viewBox="0 0 395.52 54.97311950336265" height="54.97311950336265" width="395.52"><g><svg viewBox="0 0 395.52 54.97311950336265" height="54.97311950336265" width="395.52"><g id="textblocktransform"><svg viewBox="0 0 395.52 54.97311950336265" height="54.97311950336265" width="395.52" id="textblock"><g><svg viewBox="0 0 395.52 54.97311950336265" height="54.97311950336265" width="395.52"><g transform="matrix(1,0,0,1,0,0)"><svg width="395.52" viewBox="1 -39.599998474121094 289.94000244140625 40.29999923706055" height="54.97311950336265" data-palette-color="#ffffff"><path d="M29.8-30.7L29.8-38.9 46.2-38.9 46.2-30.7 43.7-30.7 43.7 0 29.65 0 15-22.55 15-8.2 17.4-8.2 17.4 0 1 0 1-8.2 3.5-8.2 3.5-30.7 1-30.7 1-38.9 19.05-38.9 32.2-18.85 32.2-30.7 29.8-30.7ZM66.8 0.7Q58.95 0.7 54.67-2.75 50.4-6.2 50.4-13.95L50.4-13.95 50.4-30.7 47.9-30.7 47.9-38.9 66.4-38.9 66.4-30.7 64.4-30.7 64.4-11.4Q64.4-9.75 65.12-8.97 65.85-8.2 67.3-8.2L67.3-8.2Q68.75-8.2 69.47-8.97 70.2-9.75 70.2-11.4L70.2-11.4 70.2-30.7 68.2-30.7 68.2-38.9 85.35-38.9 85.35-30.7 82.85-30.7 82.85-13.95Q82.85-6.2 78.7-2.75 74.55 0.7 66.8 0.7L66.8 0.7ZM113.2-20.05L123.35-8.2 125.45-8.2 125.45 0 106.55 0 106.55-8.2 108.6-8.2 105.7-12.3 105.2-12.3 102.3-8.2 104.35-8.2 104.35 0 86.85 0 86.85-8.2 89.45-8.2 99.05-19 89.05-30.7 86.95-30.7 86.95-38.9 105.7-38.9 105.7-30.7 103.8-30.7 106.55-26.6 107.05-26.6 109.8-30.7 107.9-30.7 107.9-38.9 125.25-38.9 125.25-30.7 122.65-30.7 113.2-20.05ZM164.44-38.9L164.44-26.8 155.84-26.8 155.84-30.7 152.64-30.7 152.64-8.2 156.14-8.2 156.14 0 135.14 0 135.14-8.2 138.64-8.2 138.64-30.7 135.44-30.7 135.44-26.8 126.84-26.8 126.84-38.9 164.44-38.9ZM166.14 0L166.14-8.2 168.64-8.2 168.64-30.7 166.14-30.7 166.14-38.9 189.09-38.9Q195.54-38.9 198.94-36.25 202.34-33.6 202.34-27.65L202.34-27.65Q202.34-24.3 200.99-21.85 199.64-19.4 197.14-18.45L197.14-18.45 197.19-17.95Q201.99-17.2 201.99-12.05L201.99-12.05 201.99-8.2 204.34-8.2 204.34 0 188.49 0 188.49-11.75Q188.49-13.7 187.92-14.7 187.34-15.7 186.12-16.05 184.89-16.4 182.64-16.4L182.64-16.4 182.64-8.2 185.94-8.2 185.94 0 166.14 0ZM182.64-22.5L185.34-22.5Q186.79-22.5 187.52-23.28 188.24-24.05 188.24-25.7L188.24-25.7 188.24-27.5Q188.24-29.15 187.52-29.93 186.79-30.7 185.34-30.7L185.34-30.7 182.64-30.7 182.64-22.5ZM224.94 0.7Q215.79 0.7 210.81-4.1 205.84-8.9 205.84-19.45L205.84-19.45Q205.84-30 210.81-34.8 215.79-39.6 224.94-39.6L224.94-39.6Q234.09-39.6 239.06-34.8 244.04-30 244.04-19.45L244.04-19.45Q244.04-8.9 239.06-4.1 234.09 0.7 224.94 0.7L224.94 0.7ZM224.94-8.2Q226.64-8.2 227.49-9.1 228.34-10 228.34-11.9L228.34-11.9 228.34-27Q228.34-28.9 227.49-29.8 226.64-30.7 224.94-30.7L224.94-30.7Q223.24-30.7 222.39-29.8 221.54-28.9 221.54-27L221.54-27 221.54-11.9Q221.54-9.95 222.39-9.08 223.24-8.2 224.94-8.2L224.94-8.2ZM274.54-30.7L274.54-38.9 290.94-38.9 290.94-30.7 288.44-30.7 288.44 0 274.38 0 259.74-22.55 259.74-8.2 262.13-8.2 262.13 0 245.74 0 245.74-8.2 248.24-8.2 248.24-30.7 245.74-30.7 245.74-38.9 263.79-38.9 276.94-18.85 276.94-30.7 274.54-30.7Z" opacity="1" transform="matrix(1,0,0,1,0,0)" fill="#ffffff" class="undefined-text-0" data-fill-palette-color="primary" id="text-0"></path></svg></g></svg></g></svg></g></svg></g><g></g></svg></g></svg></g></svg></g></svg></g><defs></defs></svg><rect width="395.52" height="247.2" fill="none" stroke="none" visibility="hidden"></rect></g></svg></g></svg>